<mxfile host="Electron" agent="Mozilla/5.0 (Windows NT 10.0; Win64; x64) AppleWebKit/537.36 (KHTML, like Gecko) draw.io/24.7.17 Chrome/128.0.6613.36 Electron/32.0.1 Safari/537.36" version="24.7.17">
  <diagram name="PÃ¡gina-1" id="RjojAjJc4gebKcQe9PAh">
    <mxGraphModel dx="1354" dy="818" grid="1" gridSize="10" guides="1" tooltips="1" connect="1" arrows="1" fold="1" page="1" pageScale="1" pageWidth="827" pageHeight="1169" math="0" shadow="0">
      <root>
        <mxCell id="0" />
        <mxCell id="1" parent="0" />
        <mxCell id="NRVQCESb3wgKv9bsnJzT-1" value="Persona" style="rounded=0;whiteSpace=wrap;html=1;" vertex="1" parent="1">
          <mxGeometry x="250" y="90" width="120" height="60" as="geometry" />
        </mxCell>
        <mxCell id="NRVQCESb3wgKv9bsnJzT-6" style="edgeStyle=orthogonalEdgeStyle;rounded=0;orthogonalLoop=1;jettySize=auto;html=1;" edge="1" parent="1" source="NRVQCESb3wgKv9bsnJzT-3" target="NRVQCESb3wgKv9bsnJzT-1">
          <mxGeometry relative="1" as="geometry">
            <Array as="points">
              <mxPoint x="500" y="200" />
              <mxPoint x="310" y="200" />
            </Array>
          </mxGeometry>
        </mxCell>
        <mxCell id="NRVQCESb3wgKv9bsnJzT-13" value="" style="edgeStyle=orthogonalEdgeStyle;rounded=0;orthogonalLoop=1;jettySize=auto;html=1;" edge="1" parent="1" source="NRVQCESb3wgKv9bsnJzT-3" target="NRVQCESb3wgKv9bsnJzT-12">
          <mxGeometry relative="1" as="geometry" />
        </mxCell>
        <mxCell id="NRVQCESb3wgKv9bsnJzT-3" value="Cliente" style="whiteSpace=wrap;html=1;" vertex="1" parent="1">
          <mxGeometry x="440" y="240" width="120" height="60" as="geometry" />
        </mxCell>
        <mxCell id="NRVQCESb3wgKv9bsnJzT-5" style="edgeStyle=orthogonalEdgeStyle;rounded=0;orthogonalLoop=1;jettySize=auto;html=1;" edge="1" parent="1" source="NRVQCESb3wgKv9bsnJzT-4" target="NRVQCESb3wgKv9bsnJzT-1">
          <mxGeometry relative="1" as="geometry">
            <Array as="points">
              <mxPoint x="100" y="200" />
              <mxPoint x="310" y="200" />
            </Array>
          </mxGeometry>
        </mxCell>
        <mxCell id="NRVQCESb3wgKv9bsnJzT-10" value="" style="edgeStyle=orthogonalEdgeStyle;rounded=0;orthogonalLoop=1;jettySize=auto;html=1;" edge="1" parent="1" source="NRVQCESb3wgKv9bsnJzT-4" target="NRVQCESb3wgKv9bsnJzT-9">
          <mxGeometry relative="1" as="geometry" />
        </mxCell>
        <mxCell id="NRVQCESb3wgKv9bsnJzT-4" value="Empleado" style="rounded=0;whiteSpace=wrap;html=1;" vertex="1" parent="1">
          <mxGeometry x="40" y="240" width="120" height="60" as="geometry" />
        </mxCell>
        <mxCell id="NRVQCESb3wgKv9bsnJzT-7" value="(T,S)" style="text;html=1;align=center;verticalAlign=middle;resizable=0;points=[];autosize=1;strokeColor=none;fillColor=none;" vertex="1" parent="1">
          <mxGeometry x="335" y="158" width="50" height="30" as="geometry" />
        </mxCell>
        <mxCell id="NRVQCESb3wgKv9bsnJzT-8" value="Articulos" style="whiteSpace=wrap;html=1;" vertex="1" parent="1">
          <mxGeometry x="40" y="760" width="120" height="60" as="geometry" />
        </mxCell>
        <mxCell id="NRVQCESb3wgKv9bsnJzT-16" value="" style="edgeStyle=orthogonalEdgeStyle;rounded=0;orthogonalLoop=1;jettySize=auto;html=1;" edge="1" parent="1" source="NRVQCESb3wgKv9bsnJzT-9" target="NRVQCESb3wgKv9bsnJzT-15">
          <mxGeometry relative="1" as="geometry" />
        </mxCell>
        <mxCell id="NRVQCESb3wgKv9bsnJzT-9" value="realiza" style="rhombus;whiteSpace=wrap;html=1;rounded=0;" vertex="1" parent="1">
          <mxGeometry x="60" y="370" width="80" height="80" as="geometry" />
        </mxCell>
        <mxCell id="NRVQCESb3wgKv9bsnJzT-48" style="edgeStyle=orthogonalEdgeStyle;rounded=0;orthogonalLoop=1;jettySize=auto;html=1;" edge="1" parent="1" source="NRVQCESb3wgKv9bsnJzT-12" target="NRVQCESb3wgKv9bsnJzT-15">
          <mxGeometry relative="1" as="geometry">
            <Array as="points">
              <mxPoint x="500" y="550" />
            </Array>
          </mxGeometry>
        </mxCell>
        <mxCell id="NRVQCESb3wgKv9bsnJzT-12" value="compra" style="rhombus;whiteSpace=wrap;html=1;" vertex="1" parent="1">
          <mxGeometry x="460" y="370" width="80" height="80" as="geometry" />
        </mxCell>
        <mxCell id="NRVQCESb3wgKv9bsnJzT-18" value="" style="edgeStyle=orthogonalEdgeStyle;rounded=0;orthogonalLoop=1;jettySize=auto;html=1;" edge="1" parent="1" source="NRVQCESb3wgKv9bsnJzT-15" target="NRVQCESb3wgKv9bsnJzT-17">
          <mxGeometry relative="1" as="geometry" />
        </mxCell>
        <mxCell id="NRVQCESb3wgKv9bsnJzT-55" style="edgeStyle=orthogonalEdgeStyle;rounded=0;orthogonalLoop=1;jettySize=auto;html=1;" edge="1" parent="1" source="NRVQCESb3wgKv9bsnJzT-15" target="NRVQCESb3wgKv9bsnJzT-54">
          <mxGeometry relative="1" as="geometry">
            <Array as="points">
              <mxPoint x="410" y="570" />
              <mxPoint x="410" y="570" />
            </Array>
          </mxGeometry>
        </mxCell>
        <mxCell id="NRVQCESb3wgKv9bsnJzT-59" value="" style="edgeStyle=orthogonalEdgeStyle;rounded=0;orthogonalLoop=1;jettySize=auto;html=1;" edge="1" parent="1" source="NRVQCESb3wgKv9bsnJzT-15" target="NRVQCESb3wgKv9bsnJzT-58">
          <mxGeometry relative="1" as="geometry">
            <Array as="points">
              <mxPoint x="510" y="580" />
            </Array>
          </mxGeometry>
        </mxCell>
        <mxCell id="NRVQCESb3wgKv9bsnJzT-15" value="Venta" style="whiteSpace=wrap;html=1;rounded=0;" vertex="1" parent="1">
          <mxGeometry x="40" y="534.5" width="120" height="60" as="geometry" />
        </mxCell>
        <mxCell id="NRVQCESb3wgKv9bsnJzT-19" style="edgeStyle=orthogonalEdgeStyle;rounded=0;orthogonalLoop=1;jettySize=auto;html=1;" edge="1" parent="1" source="NRVQCESb3wgKv9bsnJzT-17" target="NRVQCESb3wgKv9bsnJzT-8">
          <mxGeometry relative="1" as="geometry" />
        </mxCell>
        <mxCell id="NRVQCESb3wgKv9bsnJzT-17" value="registra" style="rhombus;whiteSpace=wrap;html=1;rounded=0;" vertex="1" parent="1">
          <mxGeometry x="60" y="630" width="80" height="80" as="geometry" />
        </mxCell>
        <mxCell id="NRVQCESb3wgKv9bsnJzT-30" value="" style="edgeStyle=orthogonalEdgeStyle;rounded=0;orthogonalLoop=1;jettySize=auto;html=1;" edge="1" source="NRVQCESb3wgKv9bsnJzT-31" target="NRVQCESb3wgKv9bsnJzT-37" parent="1">
          <mxGeometry relative="1" as="geometry" />
        </mxCell>
        <mxCell id="NRVQCESb3wgKv9bsnJzT-31" value="TARJETA" style="whiteSpace=wrap;html=1;" vertex="1" parent="1">
          <mxGeometry x="450" y="870" width="120" height="60" as="geometry" />
        </mxCell>
        <mxCell id="NRVQCESb3wgKv9bsnJzT-33" value="BANCO" style="whiteSpace=wrap;html=1;" vertex="1" parent="1">
          <mxGeometry x="707" y="870" width="120" height="60" as="geometry" />
        </mxCell>
        <mxCell id="NRVQCESb3wgKv9bsnJzT-34" value="" style="edgeStyle=orthogonalEdgeStyle;rounded=0;orthogonalLoop=1;jettySize=auto;html=1;" edge="1" source="NRVQCESb3wgKv9bsnJzT-35" target="NRVQCESb3wgKv9bsnJzT-39" parent="1">
          <mxGeometry relative="1" as="geometry" />
        </mxCell>
        <mxCell id="NRVQCESb3wgKv9bsnJzT-35" value="ENTIDAD&lt;div&gt;EMISORA&lt;/div&gt;" style="whiteSpace=wrap;html=1;" vertex="1" parent="1">
          <mxGeometry x="200" y="870" width="120" height="60" as="geometry" />
        </mxCell>
        <mxCell id="NRVQCESb3wgKv9bsnJzT-36" value="" style="edgeStyle=orthogonalEdgeStyle;rounded=0;orthogonalLoop=1;jettySize=auto;html=1;" edge="1" source="NRVQCESb3wgKv9bsnJzT-37" target="NRVQCESb3wgKv9bsnJzT-33" parent="1">
          <mxGeometry relative="1" as="geometry" />
        </mxCell>
        <mxCell id="NRVQCESb3wgKv9bsnJzT-37" value="pertenece" style="rhombus;whiteSpace=wrap;html=1;" vertex="1" parent="1">
          <mxGeometry x="620" y="875" width="46.25" height="50" as="geometry" />
        </mxCell>
        <mxCell id="NRVQCESb3wgKv9bsnJzT-38" style="edgeStyle=orthogonalEdgeStyle;rounded=0;orthogonalLoop=1;jettySize=auto;html=1;entryX=0;entryY=0.5;entryDx=0;entryDy=0;" edge="1" source="NRVQCESb3wgKv9bsnJzT-39" target="NRVQCESb3wgKv9bsnJzT-31" parent="1">
          <mxGeometry relative="1" as="geometry" />
        </mxCell>
        <mxCell id="NRVQCESb3wgKv9bsnJzT-39" value="emite" style="rhombus;whiteSpace=wrap;html=1;" vertex="1" parent="1">
          <mxGeometry x="360" y="875" width="50" height="50" as="geometry" />
        </mxCell>
        <mxCell id="NRVQCESb3wgKv9bsnJzT-52" value="Efectivo" style="whiteSpace=wrap;html=1;" vertex="1" parent="1">
          <mxGeometry x="583.13" y="410" width="120" height="60" as="geometry" />
        </mxCell>
        <mxCell id="NRVQCESb3wgKv9bsnJzT-56" style="edgeStyle=orthogonalEdgeStyle;rounded=0;orthogonalLoop=1;jettySize=auto;html=1;" edge="1" parent="1" source="NRVQCESb3wgKv9bsnJzT-54" target="NRVQCESb3wgKv9bsnJzT-52">
          <mxGeometry relative="1" as="geometry" />
        </mxCell>
        <mxCell id="NRVQCESb3wgKv9bsnJzT-54" value="abona2" style="rhombus;whiteSpace=wrap;html=1;" vertex="1" parent="1">
          <mxGeometry x="610.63" y="544.5" width="65" height="50" as="geometry" />
        </mxCell>
        <mxCell id="NRVQCESb3wgKv9bsnJzT-60" style="edgeStyle=orthogonalEdgeStyle;rounded=0;orthogonalLoop=1;jettySize=auto;html=1;" edge="1" parent="1" source="NRVQCESb3wgKv9bsnJzT-58" target="NRVQCESb3wgKv9bsnJzT-31">
          <mxGeometry relative="1" as="geometry" />
        </mxCell>
        <mxCell id="NRVQCESb3wgKv9bsnJzT-58" value="abona" style="rhombus;whiteSpace=wrap;html=1;rounded=0;" vertex="1" parent="1">
          <mxGeometry x="470" y="670" width="80" height="80" as="geometry" />
        </mxCell>
        <mxCell id="NRVQCESb3wgKv9bsnJzT-61" style="edgeStyle=orthogonalEdgeStyle;rounded=0;orthogonalLoop=1;jettySize=auto;html=1;endArrow=oval;endFill=0;" edge="1" parent="1">
          <mxGeometry relative="1" as="geometry">
            <mxPoint x="538" y="739" as="targetPoint" />
            <mxPoint x="538" y="724" as="sourcePoint" />
            <Array as="points">
              <mxPoint x="538" y="739" />
            </Array>
          </mxGeometry>
        </mxCell>
        <mxCell id="NRVQCESb3wgKv9bsnJzT-62" value="cuotas(0,1)" style="text;html=1;align=center;verticalAlign=middle;resizable=0;points=[];autosize=1;strokeColor=none;fillColor=none;" vertex="1" parent="1">
          <mxGeometry x="510" y="750" width="80" height="30" as="geometry" />
        </mxCell>
        <mxCell id="NRVQCESb3wgKv9bsnJzT-65" style="edgeStyle=orthogonalEdgeStyle;rounded=0;orthogonalLoop=1;jettySize=auto;html=1;endArrow=oval;endFill=0;" edge="1" parent="1">
          <mxGeometry relative="1" as="geometry">
            <mxPoint x="120" y="705" as="targetPoint" />
            <mxPoint x="120" y="690" as="sourcePoint" />
            <Array as="points">
              <mxPoint x="120" y="705" />
            </Array>
          </mxGeometry>
        </mxCell>
        <mxCell id="NRVQCESb3wgKv9bsnJzT-66" value="precioV" style="text;html=1;align=center;verticalAlign=middle;resizable=0;points=[];autosize=1;strokeColor=none;fillColor=none;" vertex="1" parent="1">
          <mxGeometry x="120" y="690" width="60" height="30" as="geometry" />
        </mxCell>
        <mxCell id="NRVQCESb3wgKv9bsnJzT-67" style="edgeStyle=orthogonalEdgeStyle;rounded=0;orthogonalLoop=1;jettySize=auto;html=1;endArrow=oval;endFill=0;exitX=0.867;exitY=0.402;exitDx=0;exitDy=0;exitPerimeter=0;" edge="1" parent="1" source="NRVQCESb3wgKv9bsnJzT-17">
          <mxGeometry relative="1" as="geometry">
            <mxPoint x="130" y="635" as="targetPoint" />
            <mxPoint x="130" y="620" as="sourcePoint" />
            <Array as="points">
              <mxPoint x="129" y="635" />
            </Array>
          </mxGeometry>
        </mxCell>
        <mxCell id="NRVQCESb3wgKv9bsnJzT-68" value="cantVendida" style="text;html=1;align=center;verticalAlign=middle;resizable=0;points=[];autosize=1;strokeColor=none;fillColor=none;" vertex="1" parent="1">
          <mxGeometry x="130" y="620" width="90" height="30" as="geometry" />
        </mxCell>
        <mxCell id="NRVQCESb3wgKv9bsnJzT-70" value="" style="shape=waypoint;sketch=0;size=6;pointerEvents=1;points=[];fillColor=none;resizable=0;rotatable=0;perimeter=centerPerimeter;snapToPoint=1;" vertex="1" parent="1">
          <mxGeometry x="713.13" y="416" width="20" height="20" as="geometry" />
        </mxCell>
        <mxCell id="NRVQCESb3wgKv9bsnJzT-71" style="edgeStyle=orthogonalEdgeStyle;rounded=0;orthogonalLoop=1;jettySize=auto;html=1;entryX=0.217;entryY=0.9;entryDx=0;entryDy=0;entryPerimeter=0;endArrow=none;endFill=0;" edge="1" target="NRVQCESb3wgKv9bsnJzT-70" parent="1">
          <mxGeometry relative="1" as="geometry">
            <mxPoint x="703.13" y="426" as="sourcePoint" />
            <Array as="points">
              <mxPoint x="713.13" y="426" />
              <mxPoint x="713.13" y="426" />
            </Array>
          </mxGeometry>
        </mxCell>
        <mxCell id="NRVQCESb3wgKv9bsnJzT-72" value="constancia" style="text;html=1;align=center;verticalAlign=middle;resizable=0;points=[];autosize=1;strokeColor=none;fillColor=none;" vertex="1" parent="1">
          <mxGeometry x="717.13" y="410" width="80" height="30" as="geometry" />
        </mxCell>
      </root>
    </mxGraphModel>
  </diagram>
</mxfile>
